<?xml version="1.0" encoding="UTF-8" standalone="no"?>
<!DOCTYPE svg PUBLIC "-//W3C//DTD SVG 1.1//EN"
 "http://www.w3.org/Graphics/SVG/1.1/DTD/svg11.dtd">
<!-- Generated by graphviz version 12.2.1 (20241206.2353)
 -->
<!-- Title: G Pages: 1 -->
<svg width="2051pt" height="1052pt"
 viewBox="0.00 0.00 2051.45 1052.12" xmlns="http://www.w3.org/2000/svg" xmlns:xlink="http://www.w3.org/1999/xlink">
<g id="graph0" class="graph" transform="scale(1 1) rotate(0) translate(21.6 1030.52)">
<title>G</title>
<polygon fill="#111111" stroke="none" points="-21.6,21.6 -21.6,-1030.52 2029.85,-1030.52 2029.85,21.6 -21.6,21.6"/>
<!-- app.cjs -->
<g id="node1" class="node">
<title>app.cjs</title>
<path fill="none" stroke="#c6c5fe" d="M159.83,-699.72C159.83,-699.72 116.92,-699.72 116.92,-699.72 112.96,-699.72 109,-695.76 109,-691.8 109,-691.8 109,-683.88 109,-683.88 109,-679.92 112.96,-675.97 116.92,-675.97 116.92,-675.97 159.83,-675.97 159.83,-675.97 163.79,-675.97 167.75,-679.92 167.75,-683.88 167.75,-683.88 167.75,-691.8 167.75,-691.8 167.75,-695.76 163.79,-699.72 159.83,-699.72"/>
<text text-anchor="middle" x="138.38" y="-682.42" font-family="Arial" font-size="14.00" fill="#c6c5fe">app.cjs</text>
</g>
<!-- config/environment.cjs -->
<g id="node2" class="node">
<title>config/environment.cjs</title>
<path fill="none" stroke="#cfffac" d="M1085.96,-962.72C1085.96,-962.72 950.79,-962.72 950.79,-962.72 946.83,-962.72 942.88,-958.76 942.88,-954.8 942.88,-954.8 942.88,-946.88 942.88,-946.88 942.88,-942.92 946.83,-938.97 950.79,-938.97 950.79,-938.97 1085.96,-938.97 1085.96,-938.97 1089.92,-938.97 1093.88,-942.92 1093.88,-946.88 1093.88,-946.88 1093.88,-954.8 1093.88,-954.8 1093.88,-958.76 1089.92,-962.72 1085.96,-962.72"/>
<text text-anchor="middle" x="1018.38" y="-945.42" font-family="Arial" font-size="14.00" fill="#cfffac">config/environment.cjs</text>
</g>
<!-- app.cjs&#45;&gt;config/environment.cjs -->
<g id="edge1" class="edge">
<title>app.cjs&#45;&gt;config/environment.cjs</title>
<path fill="none" stroke="#757575" d="M141.21,-699.83C146.07,-727.21 161.86,-794.62 203.75,-828.84 416.69,-1002.8 769.45,-984.12 931.34,-964.15"/>
<polygon fill="#757575" stroke="#757575" points="931.69,-967.64 941.17,-962.91 930.8,-960.69 931.69,-967.64"/>
</g>
<!-- config/routes.cjs -->
<g id="node3" class="node">
<title>config/routes.cjs</title>
<path fill="none" stroke="#c6c5fe" d="M365.58,-739.72C365.58,-739.72 267.92,-739.72 267.92,-739.72 263.96,-739.72 260,-735.76 260,-731.8 260,-731.8 260,-723.88 260,-723.88 260,-719.92 263.96,-715.97 267.92,-715.97 267.92,-715.97 365.58,-715.97 365.58,-715.97 369.54,-715.97 373.5,-719.92 373.5,-723.88 373.5,-723.88 373.5,-731.8 373.5,-731.8 373.5,-735.76 369.54,-739.72 365.58,-739.72"/>
<text text-anchor="middle" x="316.75" y="-722.42" font-family="Arial" font-size="14.00" fill="#c6c5fe">config/routes.cjs</text>
</g>
<!-- app.cjs&#45;&gt;config/routes.cjs -->
<g id="edge2" class="edge">
<title>app.cjs&#45;&gt;config/routes.cjs</title>
<path fill="none" stroke="#757575" d="M168.11,-694.36C190.34,-699.4 222.01,-706.58 250.32,-713"/>
<polygon fill="#757575" stroke="#757575" points="249.38,-716.38 259.91,-715.18 250.93,-709.55 249.38,-716.38"/>
</g>
<!-- middleware/authMiddleware.cjs -->
<g id="node4" class="node">
<title>middleware/authMiddleware.cjs</title>
<path fill="none" stroke="#c6c5fe" d="M666.58,-779.72C666.58,-779.72 476.67,-779.72 476.67,-779.72 472.71,-779.72 468.75,-775.76 468.75,-771.8 468.75,-771.8 468.75,-763.88 468.75,-763.88 468.75,-759.92 472.71,-755.97 476.67,-755.97 476.67,-755.97 666.58,-755.97 666.58,-755.97 670.54,-755.97 674.5,-759.92 674.5,-763.88 674.5,-763.88 674.5,-771.8 674.5,-771.8 674.5,-775.76 670.54,-779.72 666.58,-779.72"/>
<text text-anchor="middle" x="571.62" y="-762.42" font-family="Arial" font-size="14.00" fill="#c6c5fe">middleware/authMiddleware.cjs</text>
</g>
<!-- app.cjs&#45;&gt;middleware/authMiddleware.cjs -->
<g id="edge3" class="edge">
<title>app.cjs&#45;&gt;middleware/authMiddleware.cjs</title>
<path fill="none" stroke="#757575" d="M147.95,-700.12C158.96,-714.73 179.55,-738.46 203.75,-748.84 287.24,-784.64 391.4,-786.49 467.38,-781.08"/>
<polygon fill="#757575" stroke="#757575" points="467.64,-784.57 477.34,-780.31 467.1,-777.59 467.64,-784.57"/>
</g>
<!-- middleware/errorMiddleware.cjs -->
<g id="node5" class="node">
<title>middleware/errorMiddleware.cjs</title>
<path fill="none" stroke="#c6c5fe" d="M667.71,-383.72C667.71,-383.72 475.54,-383.72 475.54,-383.72 471.58,-383.72 467.62,-379.76 467.62,-375.8 467.62,-375.8 467.62,-367.88 467.62,-367.88 467.62,-363.92 471.58,-359.97 475.54,-359.97 475.54,-359.97 667.71,-359.97 667.71,-359.97 671.67,-359.97 675.62,-363.92 675.62,-367.88 675.62,-367.88 675.62,-375.8 675.62,-375.8 675.62,-379.76 671.67,-383.72 667.71,-383.72"/>
<text text-anchor="middle" x="571.62" y="-366.42" font-family="Arial" font-size="14.00" fill="#c6c5fe">middleware/errorMiddleware.cjs</text>
</g>
<!-- app.cjs&#45;&gt;middleware/errorMiddleware.cjs -->
<g id="edge4" class="edge">
<title>app.cjs&#45;&gt;middleware/errorMiddleware.cjs</title>
<path fill="none" stroke="#757575" d="M141.29,-675.75C146.38,-647.36 162.77,-575.64 203.75,-533.84 285.1,-450.86 416.31,-407.22 497.8,-386.9"/>
<polygon fill="#757575" stroke="#757575" points="498.6,-390.3 507.48,-384.54 496.94,-383.5 498.6,-390.3"/>
</g>
<!-- middleware/monitoring.cjs -->
<g id="node6" class="node">
<title>middleware/monitoring.cjs</title>
<path fill="none" stroke="#c6c5fe" d="M1306.33,-660.72C1306.33,-660.72 1148.67,-660.72 1148.67,-660.72 1144.71,-660.72 1140.75,-656.76 1140.75,-652.8 1140.75,-652.8 1140.75,-644.88 1140.75,-644.88 1140.75,-640.92 1144.71,-636.97 1148.67,-636.97 1148.67,-636.97 1306.33,-636.97 1306.33,-636.97 1310.29,-636.97 1314.25,-640.92 1314.25,-644.88 1314.25,-644.88 1314.25,-652.8 1314.25,-652.8 1314.25,-656.76 1310.29,-660.72 1306.33,-660.72"/>
<text text-anchor="middle" x="1227.5" y="-643.42" font-family="Arial" font-size="14.00" fill="#c6c5fe">middleware/monitoring.cjs</text>
</g>
<!-- app.cjs&#45;&gt;middleware/monitoring.cjs -->
<g id="edge5" class="edge">
<title>app.cjs&#45;&gt;middleware/monitoring.cjs</title>
<path fill="none" stroke="#757575" d="M168.05,-680.65C179.14,-678.12 191.97,-675.5 203.75,-673.84 365.56,-651.08 407.22,-649.84 570.62,-649.84 570.62,-649.84 570.62,-649.84 805.75,-649.84 916.44,-649.84 1043.51,-649.49 1128.79,-649.2"/>
<polygon fill="#757575" stroke="#757575" points="1128.78,-652.7 1138.76,-649.17 1128.75,-645.7 1128.78,-652.7"/>
</g>
<!-- middleware/securityMiddleware.cjs -->
<g id="node7" class="node">
<title>middleware/securityMiddleware.cjs</title>
<path fill="none" stroke="#cfffac" d="M421.83,-819.72C421.83,-819.72 211.67,-819.72 211.67,-819.72 207.71,-819.72 203.75,-815.76 203.75,-811.8 203.75,-811.8 203.75,-803.88 203.75,-803.88 203.75,-799.92 207.71,-795.97 211.67,-795.97 211.67,-795.97 421.83,-795.97 421.83,-795.97 425.79,-795.97 429.75,-799.92 429.75,-803.88 429.75,-803.88 429.75,-811.8 429.75,-811.8 429.75,-815.76 425.79,-819.72 421.83,-819.72"/>
<text text-anchor="middle" x="316.75" y="-802.42" font-family="Arial" font-size="14.00" fill="#cfffac">middleware/securityMiddleware.cjs</text>
</g>
<!-- app.cjs&#45;&gt;middleware/securityMiddleware.cjs -->
<g id="edge6" class="edge">
<title>app.cjs&#45;&gt;middleware/securityMiddleware.cjs</title>
<path fill="none" stroke="#757575" d="M144.23,-700.1C152.94,-720.44 173.21,-760.98 203.75,-781.84 209.08,-785.48 214.86,-788.62 220.87,-791.32"/>
<polygon fill="#757575" stroke="#757575" points="219.21,-794.42 229.79,-794.9 221.82,-787.93 219.21,-794.42"/>
</g>
<!-- routes/healthRoutes.cjs -->
<g id="node8" class="node">
<title>routes/healthRoutes.cjs</title>
<path fill="none" stroke="#c6c5fe" d="M875.33,-468.72C875.33,-468.72 734.17,-468.72 734.17,-468.72 730.21,-468.72 726.25,-464.76 726.25,-460.8 726.25,-460.8 726.25,-452.88 726.25,-452.88 726.25,-448.92 730.21,-444.97 734.17,-444.97 734.17,-444.97 875.33,-444.97 875.33,-444.97 879.29,-444.97 883.25,-448.92 883.25,-452.88 883.25,-452.88 883.25,-460.8 883.25,-460.8 883.25,-464.76 879.29,-468.72 875.33,-468.72"/>
<text text-anchor="middle" x="804.75" y="-451.42" font-family="Arial" font-size="14.00" fill="#c6c5fe">routes/healthRoutes.cjs</text>
</g>
<!-- app.cjs&#45;&gt;routes/healthRoutes.cjs -->
<g id="edge7" class="edge">
<title>app.cjs&#45;&gt;routes/healthRoutes.cjs</title>
<path fill="none" stroke="#757575" d="M151.16,-675.91C163.35,-664.19 183.41,-646.55 203.75,-635.84 375.43,-545.44 599.39,-494.08 719.27,-471.27"/>
<polygon fill="#757575" stroke="#757575" points="719.87,-474.72 729.05,-469.43 718.57,-467.84 719.87,-474.72"/>
</g>
<!-- utils/logger.cjs -->
<g id="node9" class="node">
<title>utils/logger.cjs</title>
<path fill="none" stroke="#cfffac" d="M2000.33,-427.72C2000.33,-427.72 1915.42,-427.72 1915.42,-427.72 1911.46,-427.72 1907.5,-423.76 1907.5,-419.8 1907.5,-419.8 1907.5,-411.88 1907.5,-411.88 1907.5,-407.92 1911.46,-403.97 1915.42,-403.97 1915.42,-403.97 2000.33,-403.97 2000.33,-403.97 2004.29,-403.97 2008.25,-407.92 2008.25,-411.88 2008.25,-411.88 2008.25,-419.8 2008.25,-419.8 2008.25,-423.76 2004.29,-427.72 2000.33,-427.72"/>
<text text-anchor="middle" x="1957.88" y="-410.42" font-family="Arial" font-size="14.00" fill="#cfffac">utils/logger.cjs</text>
</g>
<!-- app.cjs&#45;&gt;utils/logger.cjs -->
<g id="edge8" class="edge">
<title>app.cjs&#45;&gt;utils/logger.cjs</title>
<path fill="none" stroke="#757575" d="M167.93,-687.89C293.08,-688.08 805.62,-688.84 1226.5,-688.84 1226.5,-688.84 1226.5,-688.84 1614.5,-688.84 1729.55,-688.84 1781.74,-729.81 1871.5,-657.84 1940.09,-602.85 1953.66,-488.85 1956.29,-439.49"/>
<polygon fill="#757575" stroke="#757575" points="1959.78,-439.79 1956.69,-429.66 1952.78,-439.5 1959.78,-439.79"/>
</g>
<!-- config/routes.cjs&#45;&gt;middleware/authMiddleware.cjs -->
<g id="edge11" class="edge">
<title>config/routes.cjs&#45;&gt;middleware/authMiddleware.cjs</title>
<path fill="none" stroke="#757575" d="M373.87,-736.72C405.52,-741.72 445.78,-748.09 481.63,-753.76"/>
<polygon fill="#757575" stroke="#757575" points="480.69,-757.16 491.11,-755.26 481.78,-750.24 480.69,-757.16"/>
</g>
<!-- middleware/authMiddleware.cjs&#45;&gt;config/environment.cjs -->
<g id="edge14" class="edge">
<title>middleware/authMiddleware.cjs&#45;&gt;config/environment.cjs</title>
<path fill="none" stroke="#757575" d="M580.04,-779.83C598.51,-808.51 649.72,-881.07 713.5,-912.84 781.4,-946.66 868.01,-954.59 931.38,-954.98"/>
<polygon fill="#757575" stroke="#757575" points="931.02,-958.48 941.02,-954.97 931.02,-951.48 931.02,-958.48"/>
</g>
<!-- middleware/authMiddleware.cjs&#45;&gt;utils/logger.cjs -->
<g id="edge20" class="edge">
<title>middleware/authMiddleware.cjs&#45;&gt;utils/logger.cjs</title>
<path fill="none" stroke="#757575" d="M637.27,-755.52C661.14,-751.44 688.47,-747.31 713.5,-744.84 940.54,-722.41 998.36,-726.84 1226.5,-726.84 1226.5,-726.84 1226.5,-726.84 1614.5,-726.84 1671.86,-726.84 1827.17,-739.24 1871.5,-702.84 1913.13,-668.66 1943.3,-501.76 1953.29,-439.4"/>
<polygon fill="#757575" stroke="#757575" points="1956.74,-440 1954.83,-429.58 1949.83,-438.92 1956.74,-440"/>
</g>
<!-- models/Pass.cjs -->
<g id="node15" class="node">
<title>models/Pass.cjs</title>
<path fill="none" stroke="#cfffac" d="M853.96,-819.72C853.96,-819.72 755.54,-819.72 755.54,-819.72 751.58,-819.72 747.62,-815.76 747.62,-811.8 747.62,-811.8 747.62,-803.88 747.62,-803.88 747.62,-799.92 751.58,-795.97 755.54,-795.97 755.54,-795.97 853.96,-795.97 853.96,-795.97 857.92,-795.97 861.88,-799.92 861.88,-803.88 861.88,-803.88 861.88,-811.8 861.88,-811.8 861.88,-815.76 857.92,-819.72 853.96,-819.72"/>
<text text-anchor="middle" x="804.75" y="-802.42" font-family="Arial" font-size="14.00" fill="#cfffac">models/Pass.cjs</text>
</g>
<!-- middleware/authMiddleware.cjs&#45;&gt;models/Pass.cjs -->
<g id="edge15" class="edge">
<title>middleware/authMiddleware.cjs&#45;&gt;models/Pass.cjs</title>
<path fill="none" stroke="#757575" d="M643.86,-780.17C673.25,-785.25 707.15,-791.12 736.15,-796.14"/>
<polygon fill="#757575" stroke="#757575" points="735.47,-799.58 745.92,-797.83 736.67,-792.68 735.47,-799.58"/>
</g>
<!-- models/User.cjs -->
<g id="node16" class="node">
<title>models/User.cjs</title>
<path fill="none" stroke="#cfffac" d="M852.83,-903.72C852.83,-903.72 756.67,-903.72 756.67,-903.72 752.71,-903.72 748.75,-899.76 748.75,-895.8 748.75,-895.8 748.75,-887.88 748.75,-887.88 748.75,-883.92 752.71,-879.97 756.67,-879.97 756.67,-879.97 852.83,-879.97 852.83,-879.97 856.79,-879.97 860.75,-883.92 860.75,-887.88 860.75,-887.88 860.75,-895.8 860.75,-895.8 860.75,-899.76 856.79,-903.72 852.83,-903.72"/>
<text text-anchor="middle" x="804.75" y="-886.42" font-family="Arial" font-size="14.00" fill="#cfffac">models/User.cjs</text>
</g>
<!-- middleware/authMiddleware.cjs&#45;&gt;models/User.cjs -->
<g id="edge16" class="edge">
<title>middleware/authMiddleware.cjs&#45;&gt;models/User.cjs</title>
<path fill="none" stroke="#757575" d="M585.45,-780.06C608.92,-801.73 661.17,-846.84 713.5,-870.84 721.13,-874.34 729.39,-877.28 737.71,-879.75"/>
<polygon fill="#757575" stroke="#757575" points="736.62,-883.08 747.19,-882.34 738.46,-876.33 736.62,-883.08"/>
</g>
<!-- utils/auth.cjs -->
<g id="node17" class="node">
<title>utils/auth.cjs</title>
<path fill="none" stroke="#c6c5fe" d="M841.96,-777.72C841.96,-777.72 767.54,-777.72 767.54,-777.72 763.58,-777.72 759.62,-773.76 759.62,-769.8 759.62,-769.8 759.62,-761.88 759.62,-761.88 759.62,-757.92 763.58,-753.97 767.54,-753.97 767.54,-753.97 841.96,-753.97 841.96,-753.97 845.92,-753.97 849.88,-757.92 849.88,-761.88 849.88,-761.88 849.88,-769.8 849.88,-769.8 849.88,-773.76 845.92,-777.72 841.96,-777.72"/>
<text text-anchor="middle" x="804.75" y="-760.42" font-family="Arial" font-size="14.00" fill="#c6c5fe">utils/auth.cjs</text>
</g>
<!-- middleware/authMiddleware.cjs&#45;&gt;utils/auth.cjs -->
<g id="edge17" class="edge">
<title>middleware/authMiddleware.cjs&#45;&gt;utils/auth.cjs</title>
<path fill="none" stroke="#757575" d="M674.67,-766.96C699.79,-766.74 725.76,-766.51 747.77,-766.32"/>
<polygon fill="#757575" stroke="#757575" points="747.74,-769.82 757.71,-766.24 747.68,-762.83 747.74,-769.82"/>
</g>
<!-- utils/constants.cjs -->
<g id="node18" class="node">
<title>utils/constants.cjs</title>
<path fill="none" stroke="#cfffac" d="M857.71,-861.72C857.71,-861.72 751.79,-861.72 751.79,-861.72 747.83,-861.72 743.88,-857.76 743.88,-853.8 743.88,-853.8 743.88,-845.88 743.88,-845.88 743.88,-841.92 747.83,-837.97 751.79,-837.97 751.79,-837.97 857.71,-837.97 857.71,-837.97 861.67,-837.97 865.62,-841.92 865.62,-845.88 865.62,-845.88 865.62,-853.8 865.62,-853.8 865.62,-857.76 861.67,-861.72 857.71,-861.72"/>
<text text-anchor="middle" x="804.75" y="-844.42" font-family="Arial" font-size="14.00" fill="#cfffac">utils/constants.cjs</text>
</g>
<!-- middleware/authMiddleware.cjs&#45;&gt;utils/constants.cjs -->
<g id="edge18" class="edge">
<title>middleware/authMiddleware.cjs&#45;&gt;utils/constants.cjs</title>
<path fill="none" stroke="#757575" d="M597.29,-780.14C625.01,-793.58 671.61,-815.02 713.5,-828.84 719.92,-830.96 726.66,-832.94 733.44,-834.79"/>
<polygon fill="#757575" stroke="#757575" points="732.08,-838.05 742.64,-837.18 733.84,-831.27 732.08,-838.05"/>
</g>
<!-- utils/errors.cjs -->
<g id="node19" class="node">
<title>utils/errors.cjs</title>
<path fill="none" stroke="#cfffac" d="M846.46,-383.72C846.46,-383.72 763.04,-383.72 763.04,-383.72 759.08,-383.72 755.12,-379.76 755.12,-375.8 755.12,-375.8 755.12,-367.88 755.12,-367.88 755.12,-363.92 759.08,-359.97 763.04,-359.97 763.04,-359.97 846.46,-359.97 846.46,-359.97 850.42,-359.97 854.38,-363.92 854.38,-367.88 854.38,-367.88 854.38,-375.8 854.38,-375.8 854.38,-379.76 850.42,-383.72 846.46,-383.72"/>
<text text-anchor="middle" x="804.75" y="-366.42" font-family="Arial" font-size="14.00" fill="#cfffac">utils/errors.cjs</text>
</g>
<!-- middleware/authMiddleware.cjs&#45;&gt;utils/errors.cjs -->
<g id="edge19" class="edge">
<title>middleware/authMiddleware.cjs&#45;&gt;utils/errors.cjs</title>
<path fill="none" stroke="#757575" d="M575.22,-755.73C585.55,-709.69 627.53,-542.67 713.5,-435.84 728.74,-416.9 750.97,-401.05 769.55,-389.85"/>
<polygon fill="#757575" stroke="#757575" points="771.23,-392.93 778.13,-384.89 767.72,-386.87 771.23,-392.93"/>
</g>
<!-- middleware/errorMiddleware.cjs&#45;&gt;utils/logger.cjs -->
<g id="edge22" class="edge">
<title>middleware/errorMiddleware.cjs&#45;&gt;utils/logger.cjs</title>
<path fill="none" stroke="#757575" d="M638.66,-359.49C725.28,-344.4 882.14,-320.84 1017.38,-320.84 1017.38,-320.84 1017.38,-320.84 1614.5,-320.84 1729.96,-320.84 1763.76,-317.33 1871.5,-358.84 1894.58,-367.73 1917.72,-383.73 1934.08,-396.52"/>
<polygon fill="#757575" stroke="#757575" points="1931.71,-399.11 1941.7,-402.65 1936.1,-393.66 1931.71,-399.11"/>
</g>
<!-- middleware/errorMiddleware.cjs&#45;&gt;utils/errors.cjs -->
<g id="edge21" class="edge">
<title>middleware/errorMiddleware.cjs&#45;&gt;utils/errors.cjs</title>
<path fill="none" stroke="#757575" d="M676.02,-371.84C699.03,-371.84 722.7,-371.84 743.31,-371.84"/>
<polygon fill="#757575" stroke="#757575" points="743.23,-375.34 753.23,-371.84 743.23,-368.34 743.23,-375.34"/>
</g>
<!-- middleware/monitoring.cjs&#45;&gt;utils/logger.cjs -->
<g id="edge23" class="edge">
<title>middleware/monitoring.cjs&#45;&gt;utils/logger.cjs</title>
<path fill="none" stroke="#757575" d="M1314.59,-656.46C1468.75,-668.33 1783.99,-684 1871.5,-622.84 1932.97,-579.88 1950.28,-484.12 1955.07,-439.53"/>
<polygon fill="#757575" stroke="#757575" points="1958.55,-439.95 1956,-429.67 1951.58,-439.3 1958.55,-439.95"/>
</g>
<!-- routes/healthRoutes.cjs&#45;&gt;utils/logger.cjs -->
<g id="edge25" class="edge">
<title>routes/healthRoutes.cjs&#45;&gt;utils/logger.cjs</title>
<path fill="none" stroke="#757575" d="M836.58,-444.53C905.36,-418.21 1077.06,-358.84 1226.5,-358.84 1226.5,-358.84 1226.5,-358.84 1614.5,-358.84 1716.67,-358.84 1833.7,-383.85 1901.08,-400.73"/>
<polygon fill="#757575" stroke="#757575" points="1899.84,-404.03 1910.39,-403.1 1901.56,-397.24 1899.84,-404.03"/>
</g>
<!-- config/stripeConfig.cjs -->
<g id="node12" class="node">
<title>config/stripeConfig.cjs</title>
<path fill="none" stroke="#cfffac" d="M1084.46,-468.72C1084.46,-468.72 952.29,-468.72 952.29,-468.72 948.33,-468.72 944.38,-464.76 944.38,-460.8 944.38,-460.8 944.38,-452.88 944.38,-452.88 944.38,-448.92 948.33,-444.97 952.29,-444.97 952.29,-444.97 1084.46,-444.97 1084.46,-444.97 1088.42,-444.97 1092.38,-448.92 1092.38,-452.88 1092.38,-452.88 1092.38,-460.8 1092.38,-460.8 1092.38,-464.76 1088.42,-468.72 1084.46,-468.72"/>
<text text-anchor="middle" x="1018.38" y="-451.42" font-family="Arial" font-size="14.00" fill="#cfffac">config/stripeConfig.cjs</text>
</g>
<!-- routes/healthRoutes.cjs&#45;&gt;config/stripeConfig.cjs -->
<g id="edge24" class="edge">
<title>routes/healthRoutes.cjs&#45;&gt;config/stripeConfig.cjs</title>
<path fill="none" stroke="#757575" d="M883.65,-456.84C899.74,-456.84 916.75,-456.84 933.05,-456.84"/>
<polygon fill="#757575" stroke="#757575" points="932.69,-460.34 942.69,-456.84 932.69,-453.34 932.69,-460.34"/>
</g>
<!-- utils/optimizationManager.cjs -->
<g id="node21" class="node">
<title>utils/optimizationManager.cjs</title>
<path fill="none" stroke="#ff6c60" d="M1532.33,-444.72C1532.33,-444.72 1358.17,-444.72 1358.17,-444.72 1354.21,-444.72 1350.25,-440.76 1350.25,-436.8 1350.25,-436.8 1350.25,-428.88 1350.25,-428.88 1350.25,-424.92 1354.21,-420.97 1358.17,-420.97 1358.17,-420.97 1532.33,-420.97 1532.33,-420.97 1536.29,-420.97 1540.25,-424.92 1540.25,-428.88 1540.25,-428.88 1540.25,-436.8 1540.25,-436.8 1540.25,-440.76 1536.29,-444.72 1532.33,-444.72"/>
<text text-anchor="middle" x="1445.25" y="-427.42" font-family="Arial" font-size="14.00" fill="#ff6c60">utils/optimizationManager.cjs</text>
</g>
<!-- routes/healthRoutes.cjs&#45;&gt;utils/optimizationManager.cjs -->
<g id="edge26" class="edge">
<title>routes/healthRoutes.cjs&#45;&gt;utils/optimizationManager.cjs</title>
<path fill="none" stroke="#757575" d="M869.76,-444.52C889.63,-441.15 911.66,-437.86 932,-435.84 1072.1,-421.9 1234.83,-424.05 1338.61,-427.73"/>
<polygon fill="#757575" stroke="#757575" points="1338.4,-431.22 1348.52,-428.09 1338.65,-424.23 1338.4,-431.22"/>
</g>
<!-- utils/websocketMonitor.cjs -->
<g id="node22" class="node">
<title>utils/websocketMonitor.cjs</title>
<path fill="none" stroke="#ff6c60" d="M1096.83,-531.72C1096.83,-531.72 939.92,-531.72 939.92,-531.72 935.96,-531.72 932,-527.76 932,-523.8 932,-523.8 932,-515.88 932,-515.88 932,-511.92 935.96,-507.97 939.92,-507.97 939.92,-507.97 1096.83,-507.97 1096.83,-507.97 1100.79,-507.97 1104.75,-511.92 1104.75,-515.88 1104.75,-515.88 1104.75,-523.8 1104.75,-523.8 1104.75,-527.76 1100.79,-531.72 1096.83,-531.72"/>
<text text-anchor="middle" x="1018.38" y="-514.42" font-family="Arial" font-size="14.00" fill="#ff6c60">utils/websocketMonitor.cjs</text>
</g>
<!-- routes/healthRoutes.cjs&#45;&gt;utils/websocketMonitor.cjs -->
<g id="edge27" class="edge">
<title>routes/healthRoutes.cjs&#45;&gt;utils/websocketMonitor.cjs</title>
<path fill="none" stroke="#757575" d="M847.31,-469.21C881.02,-479.25 928.73,-493.45 965.04,-504.26"/>
<polygon fill="#757575" stroke="#757575" points="963.88,-507.57 974.46,-507.06 965.88,-500.86 963.88,-507.57"/>
</g>
<!-- config/database.cjs -->
<g id="node10" class="node">
<title>config/database.cjs</title>
<path fill="none" stroke="#c6c5fe" d="M629.46,-220.72C629.46,-220.72 513.79,-220.72 513.79,-220.72 509.83,-220.72 505.88,-216.76 505.88,-212.8 505.88,-212.8 505.88,-204.88 505.88,-204.88 505.88,-200.92 509.83,-196.97 513.79,-196.97 513.79,-196.97 629.46,-196.97 629.46,-196.97 633.42,-196.97 637.38,-200.92 637.38,-204.88 637.38,-204.88 637.38,-212.8 637.38,-212.8 637.38,-216.76 633.42,-220.72 629.46,-220.72"/>
<text text-anchor="middle" x="571.62" y="-203.42" font-family="Arial" font-size="14.00" fill="#c6c5fe">config/database.cjs</text>
</g>
<!-- config/database.cjs&#45;&gt;utils/logger.cjs -->
<g id="edge10" class="edge">
<title>config/database.cjs&#45;&gt;utils/logger.cjs</title>
<path fill="none" stroke="#757575" d="M637.7,-197.95C661.5,-194.28 688.66,-190.46 713.5,-187.84 848.07,-173.63 882.06,-168.84 1017.38,-168.84 1017.38,-168.84 1017.38,-168.84 1614.5,-168.84 1730.03,-168.84 1780.66,-136.46 1871.5,-207.84 1930.57,-254.25 1949.08,-348.44 1954.62,-392.33"/>
<polygon fill="#757575" stroke="#757575" points="1951.12,-392.49 1955.72,-402.03 1958.08,-391.7 1951.12,-392.49"/>
</g>
<!-- utils/connectionManager.cjs -->
<g id="node11" class="node">
<title>utils/connectionManager.cjs</title>
<path fill="none" stroke="#c6c5fe" d="M888.08,-220.72C888.08,-220.72 721.42,-220.72 721.42,-220.72 717.46,-220.72 713.5,-216.76 713.5,-212.8 713.5,-212.8 713.5,-204.88 713.5,-204.88 713.5,-200.92 717.46,-196.97 721.42,-196.97 721.42,-196.97 888.08,-196.97 888.08,-196.97 892.04,-196.97 896,-200.92 896,-204.88 896,-204.88 896,-212.8 896,-212.8 896,-216.76 892.04,-220.72 888.08,-220.72"/>
<text text-anchor="middle" x="804.75" y="-203.42" font-family="Arial" font-size="14.00" fill="#c6c5fe">utils/connectionManager.cjs</text>
</g>
<!-- config/database.cjs&#45;&gt;utils/connectionManager.cjs -->
<g id="edge9" class="edge">
<title>config/database.cjs&#45;&gt;utils/connectionManager.cjs</title>
<path fill="none" stroke="#757575" d="M637.62,-208.84C657.63,-208.84 680.16,-208.84 702.02,-208.84"/>
<polygon fill="#757575" stroke="#757575" points="701.86,-212.34 711.86,-208.84 701.86,-205.34 701.86,-212.34"/>
</g>
<!-- utils/connectionManager.cjs&#45;&gt;utils/logger.cjs -->
<g id="edge43" class="edge">
<title>utils/connectionManager.cjs&#45;&gt;utils/logger.cjs</title>
<path fill="none" stroke="#757575" d="M896.44,-208.16C981.65,-207.58 1112.73,-206.84 1226.5,-206.84 1226.5,-206.84 1226.5,-206.84 1614.5,-206.84 1737.06,-206.84 1773.1,-233.77 1871.5,-306.84 1903.61,-330.68 1930.04,-369.57 1944.62,-393.88"/>
<polygon fill="#757575" stroke="#757575" points="1941.47,-395.43 1949.53,-402.31 1947.52,-391.91 1941.47,-395.43"/>
</g>
<!-- utils/connectionManager.cjs&#45;&gt;utils/optimizationManager.cjs -->
<g id="edge44" class="edge">
<title>utils/connectionManager.cjs&#45;&gt;utils/optimizationManager.cjs</title>
<path fill="none" stroke="#757575" d="M840.99,-221.2C949.24,-259.18 1276.96,-374.15 1398.37,-416.74"/>
<polygon fill="#757575" stroke="#757575" points="1397.1,-420.01 1407.69,-420.01 1399.42,-413.4 1397.1,-420.01"/>
</g>
<!-- utils/connectionManager.cjs&#45;&gt;utils/websocketMonitor.cjs -->
<g id="edge45" class="edge">
<title>utils/connectionManager.cjs&#45;&gt;utils/websocketMonitor.cjs</title>
<path fill="none" stroke="#757575" d="M815.27,-221.06C833.36,-244.81 872.95,-299.39 896,-350.84 919.99,-404.38 894.43,-432.78 932,-477.84 940.84,-488.45 953.01,-496.6 965.4,-502.78"/>
<polygon fill="#757575" stroke="#757575" points="963.85,-505.92 974.4,-506.89 966.75,-499.55 963.85,-505.92"/>
</g>
<!-- jobs/cleanupJobs.cjs -->
<g id="node13" class="node">
<title>jobs/cleanupJobs.cjs</title>
<path fill="none" stroke="#c6c5fe" d="M379.08,-142.72C379.08,-142.72 254.42,-142.72 254.42,-142.72 250.46,-142.72 246.5,-138.76 246.5,-134.8 246.5,-134.8 246.5,-126.88 246.5,-126.88 246.5,-122.92 250.46,-118.97 254.42,-118.97 254.42,-118.97 379.08,-118.97 379.08,-118.97 383.04,-118.97 387,-122.92 387,-126.88 387,-126.88 387,-134.8 387,-134.8 387,-138.76 383.04,-142.72 379.08,-142.72"/>
<text text-anchor="middle" x="316.75" y="-125.42" font-family="Arial" font-size="14.00" fill="#c6c5fe">jobs/cleanupJobs.cjs</text>
</g>
<!-- jobs/cleanupJobs.cjs&#45;&gt;utils/logger.cjs -->
<g id="edge13" class="edge">
<title>jobs/cleanupJobs.cjs&#45;&gt;utils/logger.cjs</title>
<path fill="none" stroke="#757575" d="M387.37,-130.84C481.72,-130.84 655.46,-130.84 803.75,-130.84 803.75,-130.84 803.75,-130.84 1614.5,-130.84 1729.35,-130.84 1782.05,-85.81 1871.5,-157.84 1944.83,-216.89 1955.71,-340.64 1956.95,-392.35"/>
<polygon fill="#757575" stroke="#757575" points="1953.45,-392.12 1957.07,-402.08 1960.44,-392.04 1953.45,-392.12"/>
</g>
<!-- services/idempotencyService.cjs -->
<g id="node14" class="node">
<title>services/idempotencyService.cjs</title>
<path fill="none" stroke="#c6c5fe" d="M669.58,-102.72C669.58,-102.72 473.67,-102.72 473.67,-102.72 469.71,-102.72 465.75,-98.76 465.75,-94.8 465.75,-94.8 465.75,-86.88 465.75,-86.88 465.75,-82.92 469.71,-78.97 473.67,-78.97 473.67,-78.97 669.58,-78.97 669.58,-78.97 673.54,-78.97 677.5,-82.92 677.5,-86.88 677.5,-86.88 677.5,-94.8 677.5,-94.8 677.5,-98.76 673.54,-102.72 669.58,-102.72"/>
<text text-anchor="middle" x="571.62" y="-85.42" font-family="Arial" font-size="14.00" fill="#c6c5fe">services/idempotencyService.cjs</text>
</g>
<!-- jobs/cleanupJobs.cjs&#45;&gt;services/idempotencyService.cjs -->
<g id="edge12" class="edge">
<title>jobs/cleanupJobs.cjs&#45;&gt;services/idempotencyService.cjs</title>
<path fill="none" stroke="#757575" d="M387.18,-119.86C416.22,-115.26 450.34,-109.87 481.22,-104.98"/>
<polygon fill="#757575" stroke="#757575" points="481.61,-108.46 490.94,-103.45 480.51,-101.55 481.61,-108.46"/>
</g>
<!-- services/idempotencyService.cjs&#45;&gt;utils/logger.cjs -->
<g id="edge36" class="edge">
<title>services/idempotencyService.cjs&#45;&gt;utils/logger.cjs</title>
<path fill="none" stroke="#757575" d="M647.41,-78.48C668.72,-75.28 691.98,-72.11 713.5,-69.84 848.07,-55.63 882.06,-50.84 1017.38,-50.84 1017.38,-50.84 1017.38,-50.84 1614.5,-50.84 1732.43,-50.84 1787,-34.57 1871.5,-116.84 1949.91,-193.18 1957.67,-336.1 1957.51,-392.29"/>
<polygon fill="#757575" stroke="#757575" points="1954.01,-392.21 1957.38,-402.26 1961.01,-392.3 1954.01,-392.21"/>
</g>
<!-- services/idempotencyService.cjs&#45;&gt;utils/errors.cjs -->
<g id="edge35" class="edge">
<title>services/idempotencyService.cjs&#45;&gt;utils/errors.cjs</title>
<path fill="none" stroke="#757575" d="M587.86,-103.07C609.2,-120.59 648.63,-154.44 677.5,-187.84 724.34,-242.02 769.37,-313.91 790.78,-349.67"/>
<polygon fill="#757575" stroke="#757575" points="787.75,-351.43 795.86,-358.25 793.77,-347.86 787.75,-351.43"/>
</g>
<!-- models/OrderLock.cjs -->
<g id="node20" class="node">
<title>models/OrderLock.cjs</title>
<path fill="none" stroke="#cfffac" d="M870.83,-102.72C870.83,-102.72 738.67,-102.72 738.67,-102.72 734.71,-102.72 730.75,-98.76 730.75,-94.8 730.75,-94.8 730.75,-86.88 730.75,-86.88 730.75,-82.92 734.71,-78.97 738.67,-78.97 738.67,-78.97 870.83,-78.97 870.83,-78.97 874.79,-78.97 878.75,-82.92 878.75,-86.88 878.75,-86.88 878.75,-94.8 878.75,-94.8 878.75,-98.76 874.79,-102.72 870.83,-102.72"/>
<text text-anchor="middle" x="804.75" y="-85.42" font-family="Arial" font-size="14.00" fill="#cfffac">models/OrderLock.cjs</text>
</g>
<!-- services/idempotencyService.cjs&#45;&gt;models/OrderLock.cjs -->
<g id="edge34" class="edge">
<title>services/idempotencyService.cjs&#45;&gt;models/OrderLock.cjs</title>
<path fill="none" stroke="#757575" d="M677.7,-90.84C691.59,-90.84 705.67,-90.84 719.15,-90.84"/>
<polygon fill="#757575" stroke="#757575" points="718.8,-94.34 728.8,-90.84 718.8,-87.34 718.8,-94.34"/>
</g>
<!-- utils/auth.cjs&#45;&gt;config/environment.cjs -->
<g id="edge37" class="edge">
<title>utils/auth.cjs&#45;&gt;config/environment.cjs</title>
<path fill="none" stroke="#757575" d="M850.01,-769.8C865.51,-772.77 882.42,-777.92 896,-786.84 950.77,-822.81 989.76,-892.43 1007.18,-928.28"/>
<polygon fill="#757575" stroke="#757575" points="1003.99,-929.73 1011.42,-937.28 1010.32,-926.75 1003.99,-929.73"/>
</g>
<!-- utils/auth.cjs&#45;&gt;utils/logger.cjs -->
<g id="edge38" class="edge">
<title>utils/auth.cjs&#45;&gt;utils/logger.cjs</title>
<path fill="none" stroke="#757575" d="M850.28,-765.84C927.06,-765.84 1089.35,-765.84 1226.5,-765.84 1226.5,-765.84 1226.5,-765.84 1614.5,-765.84 1729.26,-765.84 1784.13,-815.25 1871.5,-740.84 1918.22,-701.05 1945.82,-507.13 1954.16,-439.31"/>
<polygon fill="#757575" stroke="#757575" points="1957.6,-440.03 1955.32,-429.68 1950.65,-439.2 1957.6,-440.03"/>
</g>
<!-- utils/auth.cjs&#45;&gt;utils/websocketMonitor.cjs -->
<g id="edge39" class="edge">
<title>utils/auth.cjs&#45;&gt;utils/websocketMonitor.cjs</title>
<path fill="none" stroke="#757575" d="M816.24,-753.64C850.09,-714.29 956.65,-590.42 999.39,-540.75"/>
<polygon fill="#757575" stroke="#757575" points="1001.96,-543.12 1005.83,-533.26 996.66,-538.56 1001.96,-543.12"/>
</g>
<!-- utils/optimizationManager.cjs&#45;&gt;utils/logger.cjs -->
<g id="edge51" class="edge">
<title>utils/optimizationManager.cjs&#45;&gt;utils/logger.cjs</title>
<path fill="none" stroke="#757575" d="M1540.74,-427.44C1585.06,-425.08 1638.6,-422.49 1686.75,-420.84 1758.52,-418.39 1841.07,-417.08 1895.83,-416.42"/>
<polygon fill="#757575" stroke="#757575" points="1895.6,-419.93 1905.56,-416.31 1895.52,-412.93 1895.6,-419.93"/>
</g>
<!-- utils/io.cjs -->
<g id="node24" class="node">
<title>utils/io.cjs</title>
<path fill="none" stroke="#ff6c60" d="M1642.83,-486.72C1642.83,-486.72 1584.17,-486.72 1584.17,-486.72 1580.21,-486.72 1576.25,-482.76 1576.25,-478.8 1576.25,-478.8 1576.25,-470.88 1576.25,-470.88 1576.25,-466.92 1580.21,-462.97 1584.17,-462.97 1584.17,-462.97 1642.83,-462.97 1642.83,-462.97 1646.79,-462.97 1650.75,-466.92 1650.75,-470.88 1650.75,-470.88 1650.75,-478.8 1650.75,-478.8 1650.75,-482.76 1646.79,-486.72 1642.83,-486.72"/>
<text text-anchor="middle" x="1613.5" y="-469.42" font-family="Arial" font-size="14.00" fill="#ff6c60">utils/io.cjs</text>
</g>
<!-- utils/optimizationManager.cjs&#45;&gt;utils/io.cjs -->
<g id="edge50" class="edge">
<title>utils/optimizationManager.cjs&#45;&gt;utils/io.cjs</title>
<path fill="none" stroke="#757575" d="M1521.59,-445.15C1539.57,-449.57 1558.03,-454.54 1573.58,-459.19"/>
<polygon fill="#757575" stroke="#757575" points="1572.31,-462.46 1582.9,-462.07 1574.38,-455.77 1572.31,-462.46"/>
</g>
<!-- utils/websocketMonitor.cjs&#45;&gt;utils/logger.cjs -->
<g id="edge57" class="edge">
<title>utils/websocketMonitor.cjs&#45;&gt;utils/logger.cjs</title>
<path fill="none" stroke="#757575" d="M1043.82,-532.15C1067.87,-543.73 1105.95,-560.61 1140.75,-569.84 1272.2,-604.71 1308.25,-608.84 1444.25,-608.84 1444.25,-608.84 1444.25,-608.84 1614.5,-608.84 1733.49,-608.84 1774.26,-602.41 1871.5,-533.84 1906.76,-508.98 1932.94,-464.84 1946.49,-438.16"/>
<polygon fill="#757575" stroke="#757575" points="1949.59,-439.79 1950.84,-429.27 1943.3,-436.71 1949.59,-439.79"/>
</g>
<!-- utils/websocketMonitor.cjs&#45;&gt;utils/optimizationManager.cjs -->
<g id="edge58" class="edge">
<title>utils/websocketMonitor.cjs&#45;&gt;utils/optimizationManager.cjs</title>
<path fill="none" stroke="#757575" d="M1044.87,-507.53C1061.89,-499.26 1084.74,-488.04 1104.75,-477.84 1120.87,-469.62 1123.39,-463.94 1140.75,-458.84 1204.75,-440.05 1279.35,-433.47 1338.58,-431.62"/>
<polygon fill="#757575" stroke="#757575" points="1338.41,-435.12 1348.32,-431.36 1338.23,-428.13 1338.41,-435.12"/>
</g>
<!-- utils/websocketMonitor.cjs&#45;&gt;utils/io.cjs -->
<g id="edge56" class="edge">
<title>utils/websocketMonitor.cjs&#45;&gt;utils/io.cjs</title>
<path fill="none" stroke="#757575" d="M1068.38,-507.48C1090.49,-504.87 1116.93,-502.7 1140.75,-500.84 1295.58,-488.72 1479.09,-475.41 1564.42,-472.91"/>
<polygon fill="#757575" stroke="#757575" points="1564.37,-476.41 1574.28,-472.66 1564.19,-469.41 1564.37,-476.41"/>
</g>
<!-- utils/circuitBreaker.cjs -->
<g id="node25" class="node">
<title>utils/circuitBreaker.cjs</title>
<path fill="none" stroke="#ff6c60" d="M1292.46,-542.72C1292.46,-542.72 1162.54,-542.72 1162.54,-542.72 1158.58,-542.72 1154.62,-538.76 1154.62,-534.8 1154.62,-534.8 1154.62,-526.88 1154.62,-526.88 1154.62,-522.92 1158.58,-518.97 1162.54,-518.97 1162.54,-518.97 1292.46,-518.97 1292.46,-518.97 1296.42,-518.97 1300.38,-522.92 1300.38,-526.88 1300.38,-526.88 1300.38,-534.8 1300.38,-534.8 1300.38,-538.76 1296.42,-542.72 1292.46,-542.72"/>
<text text-anchor="middle" x="1227.5" y="-525.42" font-family="Arial" font-size="14.00" fill="#ff6c60">utils/circuitBreaker.cjs</text>
</g>
<!-- utils/websocketMonitor.cjs&#45;&gt;utils/circuitBreaker.cjs -->
<g id="edge55" class="edge">
<title>utils/websocketMonitor.cjs&#45;&gt;utils/circuitBreaker.cjs</title>
<path fill="none" stroke="#757575" d="M1105.12,-517.73C1117.64,-518.27 1130.53,-518.96 1143.01,-519.77"/>
<polygon fill="#757575" stroke="#757575" points="1142.61,-523.25 1152.82,-520.44 1143.08,-516.27 1142.61,-523.25"/>
</g>
<!-- server.cjs -->
<g id="node23" class="node">
<title>server.cjs</title>
<path fill="none" stroke="#c6c5fe" d="M65.08,-241.72C65.08,-241.72 7.92,-241.72 7.92,-241.72 3.96,-241.72 0,-237.76 0,-233.8 0,-233.8 0,-225.88 0,-225.88 0,-221.92 3.96,-217.97 7.92,-217.97 7.92,-217.97 65.08,-217.97 65.08,-217.97 69.04,-217.97 73,-221.92 73,-225.88 73,-225.88 73,-233.8 73,-233.8 73,-237.76 69.04,-241.72 65.08,-241.72"/>
<text text-anchor="middle" x="36.5" y="-224.42" font-family="Arial" font-size="14.00" fill="#c6c5fe">server.cjs</text>
</g>
<!-- server.cjs&#45;&gt;app.cjs -->
<g id="edge28" class="edge">
<title>server.cjs&#45;&gt;app.cjs</title>
<path fill="none" stroke="#757575" d="M40.17,-242.09C53.66,-303.93 114.31,-582.06 132.32,-664.65"/>
<polygon fill="#757575" stroke="#757575" points="128.87,-665.26 134.42,-674.29 135.71,-663.77 128.87,-665.26"/>
</g>
<!-- server.cjs&#45;&gt;config/environment.cjs -->
<g id="edge30" class="edge">
<title>server.cjs&#45;&gt;config/environment.cjs</title>
<path fill="none" stroke="#757575" d="M37.3,-242.21C36.78,-313.34 42.4,-674.78 203.75,-896.84 244.95,-953.54 245.67,-1007.84 315.75,-1007.84 315.75,-1007.84 315.75,-1007.84 572.62,-1007.84 716.65,-1007.84 754.21,-1012.14 896,-986.84 921.85,-982.23 950,-974.08 972.68,-966.7"/>
<polygon fill="#757575" stroke="#757575" points="973.52,-970.11 981.9,-963.64 971.31,-963.47 973.52,-970.11"/>
</g>
<!-- server.cjs&#45;&gt;utils/logger.cjs -->
<g id="edge33" class="edge">
<title>server.cjs&#45;&gt;utils/logger.cjs</title>
<path fill="none" stroke="#757575" d="M44.85,-217.55C73.34,-171.65 181.59,-12.84 315.75,-12.84 315.75,-12.84 315.75,-12.84 1614.5,-12.84 1729.66,-12.84 1786.14,31.46 1871.5,-45.84 1923.7,-93.11 1948.23,-319.17 1954.92,-392.68"/>
<polygon fill="#757575" stroke="#757575" points="1951.41,-392.69 1955.77,-402.34 1958.38,-392.07 1951.41,-392.69"/>
</g>
<!-- server.cjs&#45;&gt;config/database.cjs -->
<g id="edge29" class="edge">
<title>server.cjs&#45;&gt;config/database.cjs</title>
<path fill="none" stroke="#757575" d="M73.31,-228.43C159.05,-225.05 377.68,-216.44 494.43,-211.84"/>
<polygon fill="#757575" stroke="#757575" points="494.38,-215.35 504.23,-211.46 494.1,-208.35 494.38,-215.35"/>
</g>
<!-- server.cjs&#45;&gt;jobs/cleanupJobs.cjs -->
<g id="edge31" class="edge">
<title>server.cjs&#45;&gt;jobs/cleanupJobs.cjs</title>
<path fill="none" stroke="#757575" d="M61.29,-217.5C75.03,-210.64 92.75,-202.22 109,-195.84 158.99,-176.21 217.51,-158.26 259.51,-146.22"/>
<polygon fill="#757575" stroke="#757575" points="260.24,-149.65 268.9,-143.55 258.32,-142.92 260.24,-149.65"/>
</g>
<!-- server.cjs&#45;&gt;utils/io.cjs -->
<g id="edge32" class="edge">
<title>server.cjs&#45;&gt;utils/io.cjs</title>
<path fill="none" stroke="#757575" d="M73.47,-233.87C126.44,-239.45 228.59,-248.84 315.75,-248.84 315.75,-248.84 315.75,-248.84 572.62,-248.84 1008.74,-248.84 1150.63,-215.91 1540.25,-411.84 1561.18,-422.37 1580.94,-440.37 1594.49,-454.44"/>
<polygon fill="#757575" stroke="#757575" points="1591.67,-456.55 1601.04,-461.48 1596.79,-451.78 1591.67,-456.55"/>
</g>
<!-- utils/io.cjs&#45;&gt;utils/logger.cjs -->
<g id="edge46" class="edge">
<title>utils/io.cjs&#45;&gt;utils/logger.cjs</title>
<path fill="none" stroke="#757575" d="M1651,-463.13C1662.36,-459.78 1675,-456.36 1686.75,-453.84 1757.86,-438.59 1840.87,-427.96 1895.91,-421.9"/>
<polygon fill="#757575" stroke="#757575" points="1896.14,-425.39 1905.71,-420.83 1895.39,-418.43 1896.14,-425.39"/>
</g>
<!-- utils/io.cjs&#45;&gt;utils/optimizationManager.cjs -->
<g id="edge47" class="edge">
<title>utils/io.cjs&#45;&gt;utils/optimizationManager.cjs</title>
<path fill="none" stroke="#757575" d="M1576,-471.32C1549.13,-465.89 1512.66,-456.72 1485.23,-448.51"/>
<polygon fill="#757575" stroke="#757575" points="1486.49,-445.23 1475.9,-445.63 1484.42,-451.92 1486.49,-445.23"/>
</g>
<!-- utils/io.cjs&#45;&gt;utils/websocketMonitor.cjs -->
<g id="edge49" class="edge">
<title>utils/io.cjs&#45;&gt;utils/websocketMonitor.cjs</title>
<path fill="none" stroke="#757575" d="M1575.79,-482.3C1496.41,-492.15 1302.86,-506.15 1140.75,-518.84 1132.85,-519.46 1124.67,-520.11 1116.45,-520.74"/>
<polygon fill="#757575" stroke="#757575" points="1116.45,-517.23 1106.75,-521.48 1116.98,-524.21 1116.45,-517.23"/>
</g>
<!-- utils/websocketEnhancer.cjs -->
<g id="node26" class="node">
<title>utils/websocketEnhancer.cjs</title>
<path fill="none" stroke="#ff6c60" d="M1863.58,-486.72C1863.58,-486.72 1694.67,-486.72 1694.67,-486.72 1690.71,-486.72 1686.75,-482.76 1686.75,-478.8 1686.75,-478.8 1686.75,-470.88 1686.75,-470.88 1686.75,-466.92 1690.71,-462.97 1694.67,-462.97 1694.67,-462.97 1863.58,-462.97 1863.58,-462.97 1867.54,-462.97 1871.5,-466.92 1871.5,-470.88 1871.5,-470.88 1871.5,-478.8 1871.5,-478.8 1871.5,-482.76 1867.54,-486.72 1863.58,-486.72"/>
<text text-anchor="middle" x="1779.12" y="-469.42" font-family="Arial" font-size="14.00" fill="#ff6c60">utils/websocketEnhancer.cjs</text>
</g>
<!-- utils/io.cjs&#45;&gt;utils/websocketEnhancer.cjs -->
<g id="edge48" class="edge">
<title>utils/io.cjs&#45;&gt;utils/websocketEnhancer.cjs</title>
<path fill="none" stroke="#757575" d="M1651.22,-474.84C1658.62,-474.84 1666.74,-474.84 1675.18,-474.84"/>
<polygon fill="#757575" stroke="#757575" points="1674.92,-478.34 1684.92,-474.84 1674.92,-471.34 1674.92,-478.34"/>
</g>
<!-- utils/circuitBreaker.cjs&#45;&gt;utils/logger.cjs -->
<g id="edge40" class="edge">
<title>utils/circuitBreaker.cjs&#45;&gt;utils/logger.cjs</title>
<path fill="none" stroke="#757575" d="M1300.57,-542.35C1423.4,-558.68 1678.73,-578.17 1871.5,-495.84 1900.74,-483.35 1926.15,-456.22 1941.47,-437.02"/>
<polygon fill="#757575" stroke="#757575" points="1944.1,-439.34 1947.42,-429.28 1938.55,-435.08 1944.1,-439.34"/>
</g>
<!-- utils/circuitBreaker.cjs&#45;&gt;utils/optimizationManager.cjs -->
<g id="edge41" class="edge">
<title>utils/circuitBreaker.cjs&#45;&gt;utils/optimizationManager.cjs</title>
<path fill="none" stroke="#757575" d="M1255.39,-518.63C1293.5,-501.31 1363.4,-469.56 1406.64,-449.92"/>
<polygon fill="#757575" stroke="#757575" points="1407.99,-453.16 1415.64,-445.83 1405.09,-446.78 1407.99,-453.16"/>
</g>
<!-- utils/circuitBreaker.cjs&#45;&gt;utils/websocketMonitor.cjs -->
<g id="edge42" class="edge">
<title>utils/circuitBreaker.cjs&#45;&gt;utils/websocketMonitor.cjs</title>
<path fill="none" stroke="#757575" d="M1154.33,-533.47C1142.05,-533.05 1129.11,-532.45 1116.31,-531.73"/>
<polygon fill="#757575" stroke="#757575" points="1116.82,-528.25 1106.63,-531.14 1116.4,-535.24 1116.82,-528.25"/>
</g>
<!-- utils/websocketEnhancer.cjs&#45;&gt;utils/logger.cjs -->
<g id="edge52" class="edge">
<title>utils/websocketEnhancer.cjs&#45;&gt;utils/logger.cjs</title>
<path fill="none" stroke="#757575" d="M1826.39,-462.56C1840.92,-458.47 1856.95,-453.71 1871.5,-448.84 1886.39,-443.86 1902.5,-437.8 1916.68,-432.25"/>
<polygon fill="#757575" stroke="#757575" points="1917.68,-435.62 1925.68,-428.68 1915.1,-429.11 1917.68,-435.62"/>
</g>
<!-- utils/websocketEnhancer.cjs&#45;&gt;utils/optimizationManager.cjs -->
<g id="edge53" class="edge">
<title>utils/websocketEnhancer.cjs&#45;&gt;utils/optimizationManager.cjs</title>
<path fill="none" stroke="#757575" d="M1708.16,-462.52C1689.54,-459.45 1669.41,-456.33 1650.75,-453.84 1618.63,-449.55 1583.57,-445.66 1551.7,-442.43"/>
<polygon fill="#757575" stroke="#757575" points="1552.37,-438.98 1542.07,-441.46 1551.67,-445.94 1552.37,-438.98"/>
</g>
<!-- utils/websocketEnhancer.cjs&#45;&gt;utils/websocketMonitor.cjs -->
<g id="edge54" class="edge">
<title>utils/websocketEnhancer.cjs&#45;&gt;utils/websocketMonitor.cjs</title>
<path fill="none" stroke="#757575" d="M1736.33,-487.11C1634.44,-515.46 1365.14,-580.92 1140.75,-551.84 1115.98,-548.63 1089.05,-541.88 1066.87,-535.4"/>
<polygon fill="#757575" stroke="#757575" points="1068.1,-532.12 1057.52,-532.59 1066.09,-538.82 1068.1,-532.12"/>
</g>
</g>
</svg>
